<svg width="49" height="48" viewBox="0 0 49 48" fill="none" xmlns="http://www.w3.org/2000/svg">
<rect x="0.922852" width="48" height="48" rx="14.7692" fill="url(#paint0_linear_700_2246)"/>
<g clip-path="url(#clip0_700_2246)">
<path d="M20.6666 35.5579C20.6666 36.9916 21.8223 38.1539 23.2478 38.1539C24.6733 38.1539 25.8289 36.9916 25.8289 35.5579V28.1558H21.5146C21.0462 28.1558 20.6665 28.5376 20.6665 29.0087V35.5579H20.6666Z" fill="white"/>
<path d="M28.4103 30.5599C28.4103 31.9936 29.5659 33.1558 30.9914 33.1558C32.4169 33.1558 33.5726 31.9936 33.5726 30.5599V28.1558H29.2582C28.7898 28.1558 28.4102 28.5376 28.4102 29.0087V30.5599H28.4103Z" fill="white"/>
<path d="M12.9229 34.0195C12.9229 35.4532 14.0785 36.6155 15.504 36.6155C16.9295 36.6155 18.0852 35.4532 18.0852 34.0195V28.1558H13.7708C13.3025 28.1559 12.9229 28.5377 12.9229 29.0088V34.0195Z" fill="white"/>
<path d="M25.8292 19.1802C24.4037 19.1802 23.248 20.3425 23.248 21.7762V28.1557H27.5624C28.0308 28.1557 28.4105 27.7738 28.4105 27.3027V21.7762C28.4105 20.3425 27.2548 19.1802 25.8293 19.1802H25.8292Z" fill="white"/>
<path d="M33.5729 9.07715C32.1473 9.07715 30.9917 10.2394 30.9917 11.6731V28.1558H35.306C35.7745 28.1558 36.1541 27.774 36.1541 27.3029V11.6731C36.1541 10.2394 34.9985 9.07715 33.573 9.07715H33.5729Z" fill="white"/>
<path d="M18.0856 14.0752C16.66 14.0752 15.5044 15.2375 15.5044 16.6712V28.1559H19.8187C20.2872 28.1559 20.6668 27.774 20.6668 27.3029V16.6712C20.6668 15.2375 19.5112 14.0752 18.0857 14.0752H18.0856Z" fill="white"/>
</g>
<defs>
<linearGradient id="paint0_linear_700_2246" x1="-104.377" y1="70.9733" x2="-64.225" y2="-39.5482" gradientUnits="userSpaceOnUse">
<stop stop-color="#FF0000"/>
<stop offset="1" stop-color="#E233FF"/>
</linearGradient>
<clipPath id="clip0_700_2246">
<rect width="23.2308" height="29.0769" fill="white" transform="translate(12.9229 9.07715)"/>
</clipPath>
</defs>
</svg>
